<svg viewBox="0 0 330 200" xmlns="http://www.w3.org/2000/svg"><g><g><g><g><g><line x1="42.390625" y1="171.52824927179967" x2="37.390625" y2="171.52824927179967" style="visibility: inherit;" fill="rgb(0, 0, 0)" stroke="rgb(204, 204, 204)" stroke-width="1px"></line><line x1="42.390625" y1="165.86610339989943" x2="37.390625" y2="165.86610339989943" style="visibility: inherit;" fill="rgb(0, 0, 0)" stroke="rgb(204, 204, 204)" stroke-width="1px"></line><line x1="42.390625" y1="160.961329548981" x2="37.390625" y2="160.961329548981" style="visibility: inherit;" fill="rgb(0, 0, 0)" stroke="rgb(204, 204, 204)" stroke-width="1px"></line><line x1="42.390625" y1="156.63501240351655" x2="37.390625" y2="156.63501240351655" style="visibility: inherit;" fill="rgb(0, 0, 0)" stroke="rgb(204, 204, 204)" stroke-width="1px"></line><line x1="42.390625" y1="152.7649898420737" x2="37.390625" y2="152.7649898420737" style="visibility: inherit;" fill="rgb(0, 0, 0)" stroke="rgb(204, 204, 204)" stroke-width="1px"></line><line x1="42.390625" y1="127.30483325097194" x2="37.390625" y2="127.30483325097194" style="visibility: inherit;" fill="rgb(0, 0, 0)" stroke="rgb(204, 204, 204)" stroke-width="1px"></line><line x1="42.390625" y1="112.4115963826888" x2="37.390625" y2="112.4115963826888" style="visibility: inherit;" fill="rgb(0, 0, 0)" stroke="rgb(204, 204, 204)" stroke-width="1px"></line><line x1="42.390625" y1="101.84467665987015" x2="37.390625" y2="101.84467665987015" style="visibility: inherit;" fill="rgb(0, 0, 0)" stroke="rgb(204, 204, 204)" stroke-width="1px"></line><line x1="42.390625" y1="93.64833695296284" x2="37.390625" y2="93.64833695296284" style="visibility: inherit;" fill="rgb(0, 0, 0)" stroke="rgb(204, 204, 204)" stroke-width="1px"></line><line x1="42.390625" y1="86.95143979158703" x2="37.390625" y2="86.95143979158703" style="visibility: inherit;" fill="rgb(0, 0, 0)" stroke="rgb(204, 204, 204)" stroke-width="1px"></line><line x1="42.390625" y1="81.28929391968677" x2="37.390625" y2="81.28929391968677" style="visibility: inherit;" fill="rgb(0, 0, 0)" stroke="rgb(204, 204, 204)" stroke-width="1px"></line><line x1="42.390625" y1="76.3845200687684" x2="37.390625" y2="76.3845200687684" style="visibility: inherit;" fill="rgb(0, 0, 0)" stroke="rgb(204, 204, 204)" stroke-width="1px"></line><line x1="42.390625" y1="72.05820292330392" x2="37.390625" y2="72.05820292330392" style="visibility: inherit;" fill="rgb(0, 0, 0)" stroke="rgb(204, 204, 204)" stroke-width="1px"></line><line x1="42.390625" y1="68.18818036186104" x2="37.390625" y2="68.18818036186104" style="visibility: inherit;" fill="rgb(0, 0, 0)" stroke="rgb(204, 204, 204)" stroke-width="1px"></line><line x1="42.390625" y1="42.72802377075931" x2="37.390625" y2="42.72802377075931" style="visibility: inherit;" fill="rgb(0, 0, 0)" stroke="rgb(204, 204, 204)" stroke-width="1px"></line><line x1="42.390625" y1="27.834786902476168" x2="37.390625" y2="27.834786902476168" style="visibility: inherit;" fill="rgb(0, 0, 0)" stroke="rgb(204, 204, 204)" stroke-width="1px"></line><line x1="42.390625" y1="17.267867179657514" x2="37.390625" y2="17.267867179657514" style="visibility: inherit;" fill="rgb(0, 0, 0)" stroke="rgb(204, 204, 204)" stroke-width="1px"></line><line x1="42.390625" y1="9.071527472750205" x2="37.390625" y2="9.071527472750205" style="visibility: inherit;" fill="rgb(0, 0, 0)" stroke="rgb(204, 204, 204)" stroke-width="1px"></line><line x1="42.390625" y1="2.374630311374375" x2="37.390625" y2="2.374630311374375" style="visibility: inherit;" fill="rgb(0, 0, 0)" stroke="rgb(204, 204, 204)" stroke-width="1px"></line></g><g transform="translate(32.390625, 0)"><text x="0" y="171.52824927179967" dx="0em" dy="0.3em" style="text-anchor: end; visibility: inherit; font-family: &quot;Helvetica Neue&quot;, sans-serif; font-size: 12px; font-weight: 200;" fill="rgb(50, 49, 63)" stroke="none" stroke-width="1px">0.6</text><text x="0" y="165.86610339989943" dx="0em" dy="0.3em" style="text-anchor: end; visibility: hidden; font-family: &quot;Helvetica Neue&quot;, sans-serif; font-size: 12px; font-weight: 200;" fill="rgb(50, 49, 63)" stroke="none" stroke-width="1px">0.7</text><text x="0" y="160.961329548981" dx="0em" dy="0.3em" style="text-anchor: end; visibility: hidden; font-family: &quot;Helvetica Neue&quot;, sans-serif; font-size: 12px; font-weight: 200;" fill="rgb(50, 49, 63)" stroke="none" stroke-width="1px">0.8</text><text x="0" y="156.63501240351655" dx="0em" dy="0.3em" style="text-anchor: end; visibility: hidden; font-family: &quot;Helvetica Neue&quot;, sans-serif; font-size: 12px; font-weight: 200;" fill="rgb(50, 49, 63)" stroke="none" stroke-width="1px">0.9</text><text x="0" y="152.7649898420737" dx="0em" dy="0.3em" style="text-anchor: end; visibility: hidden; font-family: &quot;Helvetica Neue&quot;, sans-serif; font-size: 12px; font-weight: 200;" fill="rgb(50, 49, 63)" stroke="none" stroke-width="1px">1</text><text x="0" y="127.30483325097194" dx="0em" dy="0.3em" style="text-anchor: end; visibility: inherit; font-family: &quot;Helvetica Neue&quot;, sans-serif; font-size: 12px; font-weight: 200;" fill="rgb(50, 49, 63)" stroke="none" stroke-width="1px">2</text><text x="0" y="112.4115963826888" dx="0em" dy="0.3em" style="text-anchor: end; visibility: hidden; font-family: &quot;Helvetica Neue&quot;, sans-serif; font-size: 12px; font-weight: 200;" fill="rgb(50, 49, 63)" stroke="none" stroke-width="1px">3</text><text x="0" y="101.84467665987015" dx="0em" dy="0.3em" style="text-anchor: end; visibility: hidden; font-family: &quot;Helvetica Neue&quot;, sans-serif; font-size: 12px; font-weight: 200;" fill="rgb(50, 49, 63)" stroke="none" stroke-width="1px">4</text><text x="0" y="93.64833695296284" dx="0em" dy="0.3em" style="text-anchor: end; visibility: hidden; font-family: &quot;Helvetica Neue&quot;, sans-serif; font-size: 12px; font-weight: 200;" fill="rgb(50, 49, 63)" stroke="none" stroke-width="1px">5</text><text x="0" y="86.95143979158703" dx="0em" dy="0.3em" style="text-anchor: end; visibility: hidden; font-family: &quot;Helvetica Neue&quot;, sans-serif; font-size: 12px; font-weight: 200;" fill="rgb(50, 49, 63)" stroke="none" stroke-width="1px">6</text><text x="0" y="81.28929391968677" dx="0em" dy="0.3em" style="text-anchor: end; visibility: inherit; font-family: &quot;Helvetica Neue&quot;, sans-serif; font-size: 12px; font-weight: 200;" fill="rgb(50, 49, 63)" stroke="none" stroke-width="1px">7</text><text x="0" y="76.3845200687684" dx="0em" dy="0.3em" style="text-anchor: end; visibility: hidden; font-family: &quot;Helvetica Neue&quot;, sans-serif; font-size: 12px; font-weight: 200;" fill="rgb(50, 49, 63)" stroke="none" stroke-width="1px">8</text><text x="0" y="72.05820292330392" dx="0em" dy="0.3em" style="text-anchor: end; visibility: hidden; font-family: &quot;Helvetica Neue&quot;, sans-serif; font-size: 12px; font-weight: 200;" fill="rgb(50, 49, 63)" stroke="none" stroke-width="1px">9</text><text x="0" y="68.18818036186104" dx="0em" dy="0.3em" style="text-anchor: end; visibility: hidden; font-family: &quot;Helvetica Neue&quot;, sans-serif; font-size: 12px; font-weight: 200;" fill="rgb(50, 49, 63)" stroke="none" stroke-width="1px">10</text><text x="0" y="42.72802377075931" dx="0em" dy="0.3em" style="text-anchor: end; visibility: hidden; font-family: &quot;Helvetica Neue&quot;, sans-serif; font-size: 12px; font-weight: 200;" fill="rgb(50, 49, 63)" stroke="none" stroke-width="1px">20</text><text x="0" y="27.834786902476168" dx="0em" dy="0.3em" style="text-anchor: end; visibility: inherit; font-family: &quot;Helvetica Neue&quot;, sans-serif; font-size: 12px; font-weight: 200;" fill="rgb(50, 49, 63)" stroke="none" stroke-width="1px">30</text><text x="0" y="17.267867179657514" dx="0em" dy="0.3em" style="text-anchor: end; visibility: hidden; font-family: &quot;Helvetica Neue&quot;, sans-serif; font-size: 12px; font-weight: 200;" fill="rgb(50, 49, 63)" stroke="none" stroke-width="1px">40</text><text x="0" y="9.071527472750205" dx="0em" dy="0.3em" style="text-anchor: end; visibility: hidden; font-family: &quot;Helvetica Neue&quot;, sans-serif; font-size: 12px; font-weight: 200;" fill="rgb(50, 49, 63)" stroke="none" stroke-width="1px">50</text><text x="0" y="2.374630311374375" dx="0em" dy="0.3em" style="text-anchor: end; visibility: hidden; font-family: &quot;Helvetica Neue&quot;, sans-serif; font-size: 12px; font-weight: 200;" fill="rgb(50, 49, 63)" stroke="none" stroke-width="1px">60</text></g><line x1="42.390625" y1="0" x2="42.390625" y2="177" fill="rgb(0, 0, 0)" stroke="rgb(204, 204, 204)" stroke-width="1px"></line></g></g><g transform="translate(42, 0)" clip-path="url(#clip_0)"><clipPath id="clip_0"><rect width="287" height="176"></rect></clipPath><g><g><g><line x1="0" y1="0" x2="0" y2="177" fill="rgb(0, 0, 0)" stroke="rgb(60, 60, 60)" stroke-width="1px" opacity="0.25"></line><line x1="23.967447916666664" y1="0" x2="23.967447916666664" y2="177" fill="rgb(0, 0, 0)" stroke="rgb(60, 60, 60)" stroke-width="1px" opacity="0.25"></line><line x1="47.93489583333333" y1="0" x2="47.93489583333333" y2="177" fill="rgb(0, 0, 0)" stroke="rgb(60, 60, 60)" stroke-width="1px" opacity="0.25"></line><line x1="71.90234375" y1="0" x2="71.90234375" y2="177" fill="rgb(0, 0, 0)" stroke="rgb(60, 60, 60)" stroke-width="1px" opacity="0.25"></line><line x1="95.86979166666666" y1="0" x2="95.86979166666666" y2="177" fill="rgb(0, 0, 0)" stroke="rgb(60, 60, 60)" stroke-width="1px" opacity="0.25"></line><line x1="119.83723958333334" y1="0" x2="119.83723958333334" y2="177" fill="rgb(0, 0, 0)" stroke="rgb(60, 60, 60)" stroke-width="1px" opacity="0.25"></line><line x1="143.8046875" y1="0" x2="143.8046875" y2="177" fill="rgb(0, 0, 0)" stroke="rgb(60, 60, 60)" stroke-width="1px" opacity="0.25"></line><line x1="167.77213541666669" y1="0" x2="167.77213541666669" y2="177" fill="rgb(0, 0, 0)" stroke="rgb(60, 60, 60)" stroke-width="1px" opacity="0.25"></line><line x1="191.73958333333331" y1="0" x2="191.73958333333331" y2="177" fill="rgb(0, 0, 0)" stroke="rgb(60, 60, 60)" stroke-width="1px" opacity="0.25"></line><line x1="215.70703125" y1="0" x2="215.70703125" y2="177" fill="rgb(0, 0, 0)" stroke="rgb(60, 60, 60)" stroke-width="1px" opacity="0.25"></line><line x1="239.67447916666669" y1="0" x2="239.67447916666669" y2="177" fill="rgb(0, 0, 0)" stroke="rgb(60, 60, 60)" stroke-width="1px" opacity="0.25"></line><line x1="263.6419270833333" y1="0" x2="263.6419270833333" y2="177" fill="rgb(0, 0, 0)" stroke="rgb(60, 60, 60)" stroke-width="1px" opacity="0.25"></line><line x1="287.609375" y1="0" x2="287.609375" y2="177" fill="rgb(0, 0, 0)" stroke="rgb(60, 60, 60)" stroke-width="1px" opacity="0.25"></line></g><g><line x1="0" y1="171.52824927179967" x2="287.609375" y2="171.52824927179967" fill="rgb(0, 0, 0)" stroke="rgb(60, 60, 60)" stroke-width="1px" opacity="0.25"></line><line x1="0" y1="165.86610339989943" x2="287.609375" y2="165.86610339989943" fill="rgb(0, 0, 0)" stroke="rgb(60, 60, 60)" stroke-width="1px" opacity="0.25"></line><line x1="0" y1="160.961329548981" x2="287.609375" y2="160.961329548981" fill="rgb(0, 0, 0)" stroke="rgb(60, 60, 60)" stroke-width="1px" opacity="0.25"></line><line x1="0" y1="156.63501240351655" x2="287.609375" y2="156.63501240351655" fill="rgb(0, 0, 0)" stroke="rgb(60, 60, 60)" stroke-width="1px" opacity="0.25"></line><line x1="0" y1="152.7649898420737" x2="287.609375" y2="152.7649898420737" fill="rgb(0, 0, 0)" stroke="rgb(60, 60, 60)" stroke-width="1px" opacity="0.25"></line><line x1="0" y1="127.30483325097194" x2="287.609375" y2="127.30483325097194" fill="rgb(0, 0, 0)" stroke="rgb(60, 60, 60)" stroke-width="1px" opacity="0.25"></line><line x1="0" y1="112.4115963826888" x2="287.609375" y2="112.4115963826888" fill="rgb(0, 0, 0)" stroke="rgb(60, 60, 60)" stroke-width="1px" opacity="0.25"></line><line x1="0" y1="101.84467665987015" x2="287.609375" y2="101.84467665987015" fill="rgb(0, 0, 0)" stroke="rgb(60, 60, 60)" stroke-width="1px" opacity="0.25"></line><line x1="0" y1="93.64833695296284" x2="287.609375" y2="93.64833695296284" fill="rgb(0, 0, 0)" stroke="rgb(60, 60, 60)" stroke-width="1px" opacity="0.25"></line><line x1="0" y1="86.95143979158703" x2="287.609375" y2="86.95143979158703" fill="rgb(0, 0, 0)" stroke="rgb(60, 60, 60)" stroke-width="1px" opacity="0.25"></line><line x1="0" y1="81.28929391968677" x2="287.609375" y2="81.28929391968677" fill="rgb(0, 0, 0)" stroke="rgb(60, 60, 60)" stroke-width="1px" opacity="0.25"></line><line x1="0" y1="76.3845200687684" x2="287.609375" y2="76.3845200687684" fill="rgb(0, 0, 0)" stroke="rgb(60, 60, 60)" stroke-width="1px" opacity="0.25"></line><line x1="0" y1="72.05820292330392" x2="287.609375" y2="72.05820292330392" fill="rgb(0, 0, 0)" stroke="rgb(60, 60, 60)" stroke-width="1px" opacity="0.25"></line><line x1="0" y1="68.18818036186104" x2="287.609375" y2="68.18818036186104" fill="rgb(0, 0, 0)" stroke="rgb(60, 60, 60)" stroke-width="1px" opacity="0.25"></line><line x1="0" y1="42.72802377075931" x2="287.609375" y2="42.72802377075931" fill="rgb(0, 0, 0)" stroke="rgb(60, 60, 60)" stroke-width="1px" opacity="0.25"></line><line x1="0" y1="27.834786902476168" x2="287.609375" y2="27.834786902476168" fill="rgb(0, 0, 0)" stroke="rgb(60, 60, 60)" stroke-width="1px" opacity="0.25"></line><line x1="0" y1="17.267867179657514" x2="287.609375" y2="17.267867179657514" fill="rgb(0, 0, 0)" stroke="rgb(60, 60, 60)" stroke-width="1px" opacity="0.25"></line><line x1="0" y1="9.071527472750205" x2="287.609375" y2="9.071527472750205" fill="rgb(0, 0, 0)" stroke="rgb(60, 60, 60)" stroke-width="1px" opacity="0.25"></line><line x1="0" y1="2.374630311374375" x2="287.609375" y2="2.374630311374375" fill="rgb(0, 0, 0)" stroke="rgb(60, 60, 60)" stroke-width="1px" opacity="0.25"></line></g></g></g><g><g><line x1="23.967447916666664" y1="0" x2="23.967447916666664" y2="177" fill="rgb(0, 0, 0)" stroke="rgb(153, 153, 153)" stroke-width="1.5px"></line></g></g><g><g><g><g><g><path stroke="rgb(204, 51, 17)" stroke-width="2px" d="M26.36419270833333,176.36875786338084L28.7609375,146.51625396352512L31.157682291666667,159.37866519261368M40.74466145833333,172.18653521059204L43.141406249999996,106.23482170821119L45.538151041666666,105.57574503347969M57.521875,93.79295627528768L59.91861979166667,81.86853788595408L62.315364583333334,122.31639230349904M71.90234375,94.20120889350635L74.29908854166668,68.2500996150753L76.69583333333333,87.49433817163333M86.28281249999999,111.30925669304699L88.67955729166667,60.933238188494L91.07630208333333,66.94457193921237M103.06002604166667,58.90357112522895L105.45677083333332,53.48876208970849L107.853515625,112.92850202404559M117.44049479166667,62.71166147728573L119.83723958333334,44.83212119673152L122.23398437499999,73.1748914614057M131.82096354166666,75.66414265764101L134.21770833333335,40.092148185191064L136.61445312499998,52.76988521696575M146.20143229166666,117.9460969639764L148.59817708333335,39.110339935046994L150.99492187500002,39.8405544334623L153.39166666666665,156.16645858665984M162.97864583333333,42.43007314335648L165.375390625,31.535484648598782L167.77213541666669,72.22428966060588M177.35911458333334,51.965171849157656L179.755859375,26.833145161444918L182.15260416666666,47.015360888553886M191.73958333333331,74.901505516977L194.136328125,25.455351088113787L196.53307291666667,32.370966206101684M208.51679687499998,27.68203897152756L210.91354166666665,23.11751969095917L213.31028645833334,84.39353482594277M222.89726562500002,34.633272533802625L225.29401041666665,17.64281147122921L227.69075520833331,47.07105846072912M237.277734375,49.76818759329532L239.67447916666669,15.396365734388723L242.07122395833335,28.937863893077804M251.658203125,91.44695213117912L254.05494791666666,16.40115725895967L256.4516927083333,17.914656290336353L258.8484375,149.11349525714022" style="fill: none;" fill="none"></path></g><g><path stroke="rgb(51, 187, 238)" stroke-width="2px" d="M38.34791666666666,126.53182665280568L40.74466145833333,108.2647281799056L43.141406249999996,137.11762883188774M52.72838541666666,121.46073874504701L55.12513020833334,86.17224241310102L57.521875,97.9938716428681M67.10885416666667,152.1782915214421L69.50559895833334,75.81921272028556L71.90234375,75.7513356725563L74.29908854166668,199.20494923394634M83.88606770833334,73.19195589971888L86.28281249999999,61.602155225298745L88.67955729166667,101.63228900972854M98.26653645833333,78.64654614447925L100.66328125,52.82926980754631L103.06002604166667,72.305648567992M112.64700520833333,98.9013151599279L115.04375,48.44485907714585L117.44049479166667,54.717837809337496M129.42421875,48.37815136442484L131.82096354166666,43.19958836256575L134.21770833333335,102.82315448557497M143.8046875,53.5783542854073L146.20143229166666,35.922973171440475L148.59817708333335,64.51324362076802M158.18515625,67.5225711138659L160.58190104166667,32.21622293299612L162.97864583333333,45.11626334973036M172.56562499999998,110.11346725257421L174.96236979166665,32.0316567758226L177.35911458333334,32.96690299585384L179.755859375,151.71428571428572M189.34283854166665,35.97265236234935L191.73958333333331,25.285714285714306L194.136328125,66.3356476707913M203.72330729166669,45.97214543669156L206.12005208333335,21.091717397348418L208.51679687499998,41.51211309728876M218.10377604166666,69.11452995313587L220.50052083333335,20.13148793562732L222.89726562500002,27.24603443089842M234.88098958333333,22.69835484143445L237.277734375,18.326245029987575L239.67447916666669,80.31745190177682M249.26145833333334,29.911451433773692L251.658203125,13.14029995188477L254.05494791666666,42.86460490364351" style="fill: none;" fill="none"></path></g><g><path stroke="rgb(238, 51, 119)" stroke-width="2px" d="M26.36419270833333,178.9017688203681L28.7609375,160.7187951100849L31.157682291666667,152.42761830001615L33.55442708333334,147.74201094523082L35.951171875,144.81259537170496L38.34791666666666,142.8694754894562L40.74466145833333,141.52779406559256L43.141406249999996,140.5724109756403L45.538151041666666,139.87408616030643L47.93489583333333,139.3513961886666L50.331640625,138.9513289402098L52.72838541666666,138.6385407350005L55.12513020833334,138.3890207772092L57.521875,138.1861932221019L59.91861979166667,138.01844300163452L62.315364583333334,137.8775100194779L64.712109375,137.75743616345238L67.10885416666667,137.65385565947727L69.50559895833334,137.56352064730658L71.90234375,137.4839805453029L74.29908854166668,137.41335452107097L76.69583333333333,137.35018121392204L79.092578125,137.29330762381062L81.48932291666667,137.24181070581537L83.88606770833334,137.1949431895377L86.28281249999999,137.1520939587669L88.67955729166667,137.11275835937934L91.07630208333333,137.07651222387892L93.47304687500001,137.04300074130813L95.86979166666666,137.01192138485484L98.26653645833333,136.98301588017262L100.66328125,136.95606075669065L103.06002604166667,136.93086390621517L105.45677083333332,136.90725677817153L107.853515625,136.88509307963892L110.25026041666668,136.86424227832313L112.64700520833333,136.8445913665299L115.04375,136.82603907933233L117.44049479166667,136.8084958202171L119.83723958333334,136.79188019776916L122.23398437499999,136.77612034072925L124.63072916666667,136.76115127376346L127.02747395833333,136.7469156024975L129.42421875,136.73336051860986L131.82096354166666,136.720437132547L134.21770833333335,136.70810346251233L136.61445312499998,136.69631830157695L139.01119791666667,136.6850477177075L141.40794270833334,136.67425763864958L143.8046875,136.66391731887373L146.20143229166666,136.65400028346832L148.59817708333335,136.64448037330237L150.99492187500002,136.63533389089486L153.39166666666665,136.6265397552307L155.78841145833331,136.6180784642253L158.18515625,136.60993034361914L160.58190104166667,136.60207900917138L162.97864583333333,136.59450780070628L165.375390625,136.58720328259545L167.77213541666669,136.58015057607165L170.16888020833335,136.57333619762466L172.56562499999998,136.56674975926344L174.96236979166665,136.56037935279542L177.35911458333334,136.55421441619472L179.755859375,136.548245198323L182.15260416666666,136.5424624376648L184.54934895833335,136.53685716944827L186.94609375000002,136.53142173560073L189.34283854166665,136.5261492640296L191.73958333333331,136.52103110516538L194.136328125,136.51606204760083L196.53307291666667,136.5112344423393L198.92981770833333,136.50654368113055L201.3265625,136.5019824807789L203.72330729166669,136.49754645510876L206.12005208333335,136.49322958241882L208.51679687499998,136.48902823532225L210.91354166666665,136.4849379744307L213.31028645833334,136.48095387455376L215.70703125,136.47707184447682L218.10377604166666,136.47328717003447L220.50052083333335,136.46959701234914L222.89726562500002,136.46599853403242L225.29401041666665,136.4624877755649L227.69075520833331,136.45906122888283L230.0875,136.45571678087384L232.48424479166667,136.4524509087139L234.88098958333333,136.449260368098L237.277734375,136.446143205562L239.67447916666669,136.44309711911825L242.07122395833335,136.4401195981996L244.46796874999998,136.43720800759672L246.86471354166665,136.4343607606391L249.26145833333334,136.43157577708814L251.658203125,136.4288495583634L254.05494791666666,136.4261822460748L256.4516927083333,136.42357055266328L258.8484375,136.42101250157114L261.24518229166665,136.41850802521935" style="fill: none;" fill="none"></path></g></g></g></g><g opacity="0.2"><g><g><g><path stroke="rgb(204, 51, 17)" stroke-width="2px" d="M26.36419270833333,159.10494097918638L28.7609375,130.79735204105597L31.157682291666667,184.33668033621973M40.74466145833333,96.71978334583244L43.141406249999996,76.77749961887297L45.538151041666666,104.61840562206687M55.12513020833334,90.40098228208444L57.521875,56.175772242479496L59.91861979166667,69.10187395284368M69.50559895833334,114.32574342613097L71.90234375,46.073481195411716L74.29908854166668,47.48664884488818M86.28281249999999,43.048022230901864L88.67955729166667,33.3431787025728L91.07630208333333,78.33940118852954M100.66328125,47.32834417686652L103.06002604166667,24.337161263575496L105.45677083333332,46.62088497307414M115.04375,63.82268517016482L117.44049479166667,19.552332332393462L119.83723958333334,28.074901874043434M129.42421875,161.9438422047611L131.82096354166666,18.87205013128974L134.21770833333335,15.931344247345407L136.61445312499998,88.14645753254587M146.20143229166666,23.04163044204492L148.59817708333335,8.125401362693822L150.99492187500002,40.96383804708444M160.58190104166667,34.73590184441122L162.97864583333333,3.882610864753616L165.375390625,19.57234832198199M174.96236979166665,66.24451492534534L177.35911458333334,3.065719728847796L179.755859375,6.41929184103779M191.73958333333331,6.127607022669281L194.136328125,-1.965222906977715L196.53307291666667,46.040551542775006M206.12005208333335,14.590789204807692L208.51679687499998,-6.770746752808947L210.91354166666665,17.185020995615332M220.50052083333335,33.539131136528766L222.89726562500002,-8.363723131463189L225.29401041666665,1.415127387765125M234.88098958333333,111.0292861590028L237.277734375,-6.571251328377514L239.67447916666669,-8.402752902517193L242.07122395833335,69.51636875044606M254.05494791666666,-14.28134214552253L256.4516927083333,20.308675743051793" style="fill: none;" fill="none"></path></g><g><path stroke="rgb(51, 187, 238)" stroke-width="2px" d="M26.36419270833333,175.37771648352742ZM35.951171875,139.9286461312264L38.34791666666666,88.44436813120682L40.74466145833333,91.6655973823289M50.331640625,263.78266964906663L52.72838541666666,67.72736074581731L55.12513020833334,62.11856622517871L57.521875,128.91307966800326M67.10885416666667,61.84282152130352L69.50559895833334,45.02934592760275L71.90234375,75.6497584179289M81.48932291666667,67.53183021441878L83.88606770833334,34.856246824608434L86.28281249999999,49.08875160044295M95.86979166666666,96.49176692908325L98.26653645833333,29.90360008167025L100.66328125,32.12189353664618M112.64700520833333,29.95116056464059L115.04375,20.840353614184124L117.44049479166667,66.75082354964688M127.02747395833333,36.23082659938376L129.42421875,13.772760798743803L131.82096354166666,36.587061527661746M141.40794270833334,53.96453656143743L143.8046875,10.38145025218276L146.20143229166666,19.29734328668414M155.78841145833331,145.55224094847392L158.18515625,10.73945726861811L160.58190104166667,8.13415561136543L162.97864583333333,81.75160489951384M172.56562499999998,15.688488282890773L174.96236979166665,1.1042308913384034L177.35911458333334,34.415996789433564M186.94609375000002,27.920929977498588L189.34283854166665,-2.5154147093129495L191.73958333333331,13.490607349234864M201.3265625,59.38831089139407L203.72330729166669,-2.828854097479933L206.12005208333335,0.7876183652408599M218.10377604166666,0.6341046330223321L220.50052083333335,-7.2027505665037665L222.89726562500002,41.44343058618085M232.48424479166667,9.39005739188579L234.88098958333333,-11.670122597245978L237.277734375,12.6118344928812M246.86471354166665,28.42615873088465L249.26145833333334,-12.976586369206643M261.24518229166665,102.37868930011265Z" style="fill: none;" fill="none"></path></g><g><path stroke="rgb(238, 51, 119)" stroke-width="2px" d="M26.36419270833333,161.63795193617364L28.7609375,149.0261890486838L31.157682291666667,144.59670207242343L33.55442708333334,142.40569963786635L35.951171875,141.11053399121562L38.34791666666666,140.2580701186399L40.74466145833333,139.65544736814314L43.141406249999996,139.20725865050616L45.538151041666666,138.86104891291325L47.93489583333333,138.58565795720526L50.331640625,138.36141223914643L52.72838541666666,138.17530084038407L55.12513020833334,138.0183727865064L57.521875,137.88427236574967L59.91861979166667,137.76836267624927L62.315364583333334,137.66717846258948L64.712109375,137.57808844976438L67.10885416666667,137.49904621719833L69.50559895833334,137.4284415448684L71.90234375,137.3649967581343L74.29908854166668,137.3076717704264L76.69583333333333,137.25562574981686L79.092578125,137.2081626853395L81.48932291666667,137.16470081306318L83.88606770833334,137.12475405090802L86.28281249999999,137.08791380066003L88.67955729166667,137.05383389160835L91.07630208333333,137.02221002978308L93.47304687500001,136.9927907924705L95.86979166666666,136.96535161203283L98.26653645833333,136.9397002349515L100.66328125,136.91566512770189L103.06002604166667,136.89310101113608L105.45677083333332,136.87187451077966L107.853515625,136.85187258778518L110.25026041666668,136.83298825264058L112.64700520833333,136.81513469698976L115.04375,136.79822820636355L117.44049479166667,136.78219663196825L119.83723958333334,136.76697084848823L122.23398437499999,136.75249322650797L124.63072916666667,136.73870910524667L127.02747395833333,136.7255724350493L129.42421875,136.713037267462L131.82096354166666,136.70106057492674L134.21770833333335,136.68961071914492L136.61445312499998,136.67864764698726L139.01119791666667,136.6681483234833L141.40794270833334,136.6580784608618L143.8046875,136.64841229516318L146.20143229166666,136.63912974885054L148.59817708333335,136.63020513272951L150.99492187500002,136.62161843631847L153.39166666666665,136.61335249824603L155.78841145833331,136.60539018118735L158.18515625,136.59771155077794L160.58190104166667,136.5903051532835L162.97864583333333,136.58315391335117L165.375390625,136.5762492283416L167.77213541666669,136.56957405472136L170.16888020833335,136.563116999749L172.56562499999998,136.55687231564767L174.96236979166665,136.55082581418606L177.35911458333334,136.5449689509542L179.755859375,136.5392931899866L182.15260416666666,136.5337900033294L184.54934895833335,136.52845087062772L186.94609375000002,136.52327009264565L189.34283854166665,136.5182419754398L191.73958333333331,136.51335520381087L194.136328125,136.5086097214421L196.53307291666667,136.5039942239158L198.92981770833333,136.49950866231393L201.3265625,136.49514174207422L203.72330729166669,136.49089342095067L206.12005208333335,136.4867552245056L208.51679687499998,136.48272711557735L210.91354166666665,136.4788034369859L213.31028645833334,136.47497853488431L215.70703125,136.47124956853133L218.10377604166666,136.46761088944783L220.50052083333335,136.4640624708412L222.89726562500002,136.46060147747403L225.29401041666665,136.45722226695287L227.69075520833331,136.453922008133L230.0875,136.45070067976272L232.48424479166667,136.44755264486702L234.88098958333333,136.44447507674403L237.277734375,136.44146795770519L239.67447916666669,136.4385284630421L242.07122395833335,136.43565376933185L244.46796874999998,136.4328410543859L246.86471354166665,136.43009030398417L249.26145833333334,136.42739869764483L251.658203125,136.42476060962977L254.05494791666666,136.42218164077963L256.4516927083333,136.41965336069796L258.8484375,136.41717575893082L261.24518229166665,136.4147516308465" style="fill: none;" fill="none"></path></g></g></g></g></g></g><g transform="translate(42, 177)" clip-path="url(#clip_1)"><clipPath id="clip_1"><rect width="287" height="22"></rect></clipPath><g><g><line x1="0" y1="0" x2="0" y2="5" style="visibility: inherit;" fill="rgb(0, 0, 0)" stroke="rgb(204, 204, 204)" stroke-width="1px"></line><line x1="23.967447916666664" y1="0" x2="23.967447916666664" y2="5" style="visibility: inherit;" fill="rgb(0, 0, 0)" stroke="rgb(204, 204, 204)" stroke-width="1px"></line><line x1="47.93489583333333" y1="0" x2="47.93489583333333" y2="5" style="visibility: inherit;" fill="rgb(0, 0, 0)" stroke="rgb(204, 204, 204)" stroke-width="1px"></line><line x1="71.90234375" y1="0" x2="71.90234375" y2="5" style="visibility: inherit;" fill="rgb(0, 0, 0)" stroke="rgb(204, 204, 204)" stroke-width="1px"></line><line x1="95.86979166666666" y1="0" x2="95.86979166666666" y2="5" style="visibility: inherit;" fill="rgb(0, 0, 0)" stroke="rgb(204, 204, 204)" stroke-width="1px"></line><line x1="119.83723958333334" y1="0" x2="119.83723958333334" y2="5" style="visibility: inherit;" fill="rgb(0, 0, 0)" stroke="rgb(204, 204, 204)" stroke-width="1px"></line><line x1="143.8046875" y1="0" x2="143.8046875" y2="5" style="visibility: inherit;" fill="rgb(0, 0, 0)" stroke="rgb(204, 204, 204)" stroke-width="1px"></line><line x1="167.77213541666669" y1="0" x2="167.77213541666669" y2="5" style="visibility: inherit;" fill="rgb(0, 0, 0)" stroke="rgb(204, 204, 204)" stroke-width="1px"></line><line x1="191.73958333333331" y1="0" x2="191.73958333333331" y2="5" style="visibility: inherit;" fill="rgb(0, 0, 0)" stroke="rgb(204, 204, 204)" stroke-width="1px"></line><line x1="215.70703125" y1="0" x2="215.70703125" y2="5" style="visibility: inherit;" fill="rgb(0, 0, 0)" stroke="rgb(204, 204, 204)" stroke-width="1px"></line><line x1="239.67447916666669" y1="0" x2="239.67447916666669" y2="5" style="visibility: inherit;" fill="rgb(0, 0, 0)" stroke="rgb(204, 204, 204)" stroke-width="1px"></line><line x1="263.6419270833333" y1="0" x2="263.6419270833333" y2="5" style="visibility: inherit;" fill="rgb(0, 0, 0)" stroke="rgb(204, 204, 204)" stroke-width="1px"></line><line x1="287.609375" y1="0" x2="287.609375" y2="5" style="visibility: inherit;" fill="rgb(0, 0, 0)" stroke="rgb(204, 204, 204)" stroke-width="1px"></line></g><g transform="translate(0, 8)"><text x="0" y="0" dx="0em" dy="0.95em" style="text-anchor: middle; visibility: hidden; font-family: &quot;Helvetica Neue&quot;, sans-serif; font-size: 12px; font-weight: 200;" fill="rgb(50, 49, 63)" stroke="none" stroke-width="1px">-10</text><text x="23.967447916666664" y="0" dx="0em" dy="0.95em" style="text-anchor: middle; visibility: inherit; font-family: &quot;Helvetica Neue&quot;, sans-serif; font-size: 12px; font-weight: 200;" fill="rgb(50, 49, 63)" stroke="none" stroke-width="1px">0</text><text x="47.93489583333333" y="0" dx="0em" dy="0.95em" style="text-anchor: middle; visibility: inherit; font-family: &quot;Helvetica Neue&quot;, sans-serif; font-size: 12px; font-weight: 200;" fill="rgb(50, 49, 63)" stroke="none" stroke-width="1px">10</text><text x="71.90234375" y="0" dx="0em" dy="0.95em" style="text-anchor: middle; visibility: inherit; font-family: &quot;Helvetica Neue&quot;, sans-serif; font-size: 12px; font-weight: 200;" fill="rgb(50, 49, 63)" stroke="none" stroke-width="1px">20</text><text x="95.86979166666666" y="0" dx="0em" dy="0.95em" style="text-anchor: middle; visibility: inherit; font-family: &quot;Helvetica Neue&quot;, sans-serif; font-size: 12px; font-weight: 200;" fill="rgb(50, 49, 63)" stroke="none" stroke-width="1px">30</text><text x="119.83723958333334" y="0" dx="0em" dy="0.95em" style="text-anchor: middle; visibility: inherit; font-family: &quot;Helvetica Neue&quot;, sans-serif; font-size: 12px; font-weight: 200;" fill="rgb(50, 49, 63)" stroke="none" stroke-width="1px">40</text><text x="143.8046875" y="0" dx="0em" dy="0.95em" style="text-anchor: middle; visibility: inherit; font-family: &quot;Helvetica Neue&quot;, sans-serif; font-size: 12px; font-weight: 200;" fill="rgb(50, 49, 63)" stroke="none" stroke-width="1px">50</text><text x="167.77213541666669" y="0" dx="0em" dy="0.95em" style="text-anchor: middle; visibility: inherit; font-family: &quot;Helvetica Neue&quot;, sans-serif; font-size: 12px; font-weight: 200;" fill="rgb(50, 49, 63)" stroke="none" stroke-width="1px">60</text><text x="191.73958333333331" y="0" dx="0em" dy="0.95em" style="text-anchor: middle; visibility: inherit; font-family: &quot;Helvetica Neue&quot;, sans-serif; font-size: 12px; font-weight: 200;" fill="rgb(50, 49, 63)" stroke="none" stroke-width="1px">70</text><text x="215.70703125" y="0" dx="0em" dy="0.95em" style="text-anchor: middle; visibility: inherit; font-family: &quot;Helvetica Neue&quot;, sans-serif; font-size: 12px; font-weight: 200;" fill="rgb(50, 49, 63)" stroke="none" stroke-width="1px">80</text><text x="239.67447916666669" y="0" dx="0em" dy="0.95em" style="text-anchor: middle; visibility: inherit; font-family: &quot;Helvetica Neue&quot;, sans-serif; font-size: 12px; font-weight: 200;" fill="rgb(50, 49, 63)" stroke="none" stroke-width="1px">90</text><text x="263.6419270833333" y="0" dx="0em" dy="0.95em" style="text-anchor: middle; visibility: inherit; font-family: &quot;Helvetica Neue&quot;, sans-serif; font-size: 12px; font-weight: 200;" fill="rgb(50, 49, 63)" stroke="none" stroke-width="1px">100</text><text x="287.609375" y="0" dx="0em" dy="0.95em" style="text-anchor: middle; visibility: hidden; font-family: &quot;Helvetica Neue&quot;, sans-serif; font-size: 12px; font-weight: 200;" fill="rgb(50, 49, 63)" stroke="none" stroke-width="1px">110</text></g><line x1="0" y1="0" x2="287.609375" y2="0" fill="rgb(0, 0, 0)" stroke="rgb(204, 204, 204)" stroke-width="1px"></line></g></g></g></g></svg>